<svg width="13" height="14" viewBox="0 0 13 14" fill="none" xmlns="http://www.w3.org/2000/svg">
<path fill-rule="evenodd" clip-rule="evenodd" d="M13 6.82243C13 10.5903 10.0898 13.6449 6.5 13.6449C2.91015 13.6449 0 10.5903 0 6.82243C0 3.0545 2.91015 0 6.5 0C10.0898 0 13 3.0545 13 6.82243ZM6.5 10.7453C6.76923 10.7453 6.9875 10.5162 6.9875 10.2336V6.14019C6.9875 5.8576 6.76923 5.6285 6.5 5.6285C6.23077 5.6285 6.0125 5.8576 6.0125 6.14019V10.2336C6.0125 10.5162 6.23077 10.7453 6.5 10.7453ZM6.5 3.41121C6.85899 3.41121 7.15 3.71667 7.15 4.09346C7.15 4.47025 6.85899 4.7757 6.5 4.7757C6.141 4.7757 5.85 4.47025 5.85 4.09346C5.85 3.71667 6.141 3.41121 6.5 3.41121Z" fill="#C4752F"/>
</svg>
